<svg width="48" height="48" viewBox="0 0 48 48" fill="none" xmlns="http://www.w3.org/2000/svg">
<rect x="0.25" y="0.25" width="47.5" height="47.5" rx="9.75" fill="#F09F61" stroke="white" stroke-width="0.5"/>
<mask id="mask0_112_137" style="mask-type:alpha" maskUnits="userSpaceOnUse" x="0" y="0" width="48" height="48">
<rect x="0.25" y="0.25" width="47.5" height="47.5" rx="9.75" fill="#F09F61" stroke="white" stroke-width="0.5"/>
</mask>
<g mask="url(#mask0_112_137)">
<path d="M27.0783 -24L31.8784 -21.2287L-0.199945 34.3326L-5.00001 31.5613L27.0783 -24Z" fill="white" fill-opacity="0.2"/>
</g>
<rect x="9" y="9" width="12" height="12" rx="2" fill="#B97440"/>
<rect x="26" y="9" width="12" height="12" rx="2" fill="#B97440"/>
<rect x="9" y="26" width="12" height="12" rx="2" fill="#B97440"/>
<rect x="26" y="26" width="12" height="12" rx="2" fill="#B97440"/>
<path d="M14.6989 18V13.64L13.7789 13.96L13.3789 13.04L14.8589 12.4H16.1389V18H14.6989Z" fill="#F09F61"/>
<path d="M34.1206 14.16C34.1206 14.6133 33.9286 15.0053 33.5446 15.336C33.4273 15.4373 33.2993 15.5387 33.1606 15.64L31.4406 16.88H34.1206V18H29.8006V16.48L32.6806 14.4V14C32.6806 13.68 32.5206 13.52 32.2006 13.52H29.9606V12.4H32.5206C33.0806 12.4 33.486 12.528 33.7366 12.784C33.9926 13.0347 34.1206 13.44 34.1206 14V14.16Z" fill="#F09F61"/>
<path d="M15.6786 35.08C14.7879 35.08 13.8013 35.0267 12.7186 34.92V33.84C13.8973 33.92 14.7773 33.96 15.3586 33.96C15.4813 33.96 15.5773 33.9253 15.6466 33.856C15.7213 33.7813 15.7586 33.6827 15.7586 33.56V33.24C15.7586 32.92 15.5986 32.76 15.2786 32.76H13.5986V31.64H15.1186C15.4386 31.64 15.5986 31.48 15.5986 31.16V31C15.5986 30.68 15.4386 30.52 15.1186 30.52H12.7986V29.4H15.5186C16.0413 29.4 16.4253 29.52 16.6706 29.76C16.9159 29.9947 17.0386 30.3547 17.0386 30.84C17.0386 31.16 16.9639 31.4213 16.8146 31.624C16.6706 31.8213 16.4786 31.96 16.2386 32.04C16.6706 32.1573 16.9639 32.4453 17.1186 32.904C17.1719 33.0693 17.1986 33.2613 17.1986 33.48V33.56C17.1986 34.0827 17.0759 34.4667 16.8306 34.712C16.5853 34.9573 16.2013 35.08 15.6786 35.08Z" fill="#F09F61"/>
<path d="M32.5184 33.88H29.5584V32.76L31.4784 29.4H33.0784L31.1584 32.76H32.5184V31.56H33.9584V32.76H34.5184V33.88H33.9584V35H32.5184V33.88Z" fill="#F09F61"/>
</svg>
