<svg width="26" height="36" viewBox="0 0 26 36" fill="none" xmlns="http://www.w3.org/2000/svg">
<path d="M6.52704 20.4L11.743 21.7976L8.01604 35.7069L5.86133 33.3164L2.80004 34.3093L6.52704 20.4Z" fill="#147BA5"/>
<path d="M9.20485 21.1175L11.743 21.7976L8.01602 35.707L7.00003 34.5L5.80003 33.3L9.20485 21.1175Z" fill="#0F6182"/>
<path d="M13.6 21.7976L18.816 20.4L22.543 34.3093L19.4817 33.3165L17.327 35.7069L13.6 21.7976Z" fill="#147BA5"/>
<path d="M16.1311 21.08L18.6693 20.3999L22.3963 34.3093L20.9129 33.772L19.2737 33.3328L16.1311 21.08Z" fill="#0F6182"/>
<circle cx="13" cy="13.2" r="12.6" fill="#FFBC88"/>
<circle cx="13" cy="13.2" r="9.6" fill="#F09F61"/>
<path d="M12.049 8.92705C12.3483 8.00574 13.6518 8.00574 13.9511 8.92705L14.392 10.2841C14.5259 10.6961 14.9099 10.9751 15.3431 10.9751H16.77C17.7387 10.9751 18.1415 12.2147 17.3578 12.7841L16.2034 13.6228C15.8529 13.8774 15.7062 14.3288 15.8401 14.7408L16.281 16.0979C16.5804 17.0192 15.5259 17.7853 14.7422 17.2159L13.5878 16.3772C13.2373 16.1226 12.7628 16.1226 12.4123 16.3772L11.2579 17.2159C10.4742 17.7853 9.4197 17.0192 9.71905 16.0979L10.16 14.7408C10.2939 14.3288 10.1472 13.8774 9.79671 13.6228L8.64234 12.7841C7.85862 12.2147 8.2614 10.9751 9.23012 10.9751H10.657C11.0902 10.9751 11.4742 10.6961 11.6081 10.2841L12.049 8.92705Z" fill="#FFBC88"/>
<path d="M1.60004 13.2C1.60004 6.90394 6.70399 1.79999 13 1.79999" stroke="#FBFBFB" stroke-width="1.5" stroke-linecap="round"/>
</svg>
